<svg width="46" height="46" viewBox="0 0 46 46" fill="none" xmlns="http://www.w3.org/2000/svg">
<path d="M44.1846 29.9722H37.2739L43.2587 26.5167C43.5667 26.3389 43.7915 26.046 43.8834 25.7026C43.9755 25.3592 43.9274 24.9931 43.7495 24.6851L37.3136 13.538C36.9433 12.8968 36.1234 12.6769 35.4821 13.0474L29.4973 16.5027L32.9526 10.5179C33.1305 10.2098 33.1786 9.84386 33.0867 9.5004C32.9946 9.15684 32.77 8.86401 32.462 8.68621L21.3146 2.25051C20.6733 1.87993 19.8533 2.09994 19.4832 2.74114L16.0278 8.7259V1.81542C16.0278 1.07492 15.4274 0.474609 14.687 0.474609H1.81542C1.07492 0.474609 0.474609 1.07492 0.474609 1.81542V37.5699C0.474609 39.7593 1.38437 41.7398 2.84524 43.1546C4.25986 44.6155 6.24056 45.5254 8.43001 45.5254H44.1846C44.925 45.5254 45.5254 44.925 45.5254 44.1846V31.3129C45.5254 30.5725 44.925 29.9722 44.1846 29.9722ZM35.6617 16.0401L40.7568 24.8649L31.9106 29.9722H11.5306L35.6617 16.0401ZM21.135 5.24321L29.9599 10.3382L24.8527 19.1842L7.20292 29.3742L21.135 5.24321ZM3.15612 3.15612H13.3462V13.3706L3.15612 31.0203V3.15612ZM42.8438 42.8438H8.43001C5.62057 42.8438 3.3349 40.5581 3.3349 37.7488C3.3349 34.9393 5.62057 32.6537 8.43001 32.6537H42.8438V42.8438Z" fill="black"/>
<path d="M8.25112 36.4082C7.54977 36.4082 6.87784 37.0248 6.91031 37.749C6.9429 38.4754 7.49947 39.0898 8.25112 39.0898C8.95247 39.0898 9.6244 38.4731 9.59192 37.749C9.55934 37.0225 9.00277 36.4082 8.25112 36.4082Z" fill="black"/>
</svg>
