<svg width="32" height="44" viewBox="0 0 32 44" fill="none" xmlns="http://www.w3.org/2000/svg">
<path fill-rule="evenodd" clip-rule="evenodd" d="M4.67055 3.11309C3.81056 3.11309 3.11211 3.81153 3.11211 4.67152V38.9285C3.11211 39.7885 3.81056 40.4822 4.67055 40.4822H26.4696C27.3296 40.4822 28.028 39.7885 28.028 38.9285V4.67152C28.028 3.81153 27.3296 3.11309 26.4696 3.11309H4.67055ZM0 4.67152C0 2.09156 2.09058 0.000976562 4.67055 0.000976562H26.4696C29.0496 0.000976562 31.1401 2.09156 31.1401 4.67152V38.9285C31.1401 41.5085 29.0496 43.5991 26.4696 43.5991H4.67055C2.09058 43.5991 0 41.5085 0 38.9285V4.67152Z" fill="#000001"/>
<path fill-rule="evenodd" clip-rule="evenodd" d="M17.1285 23.3582C17.1285 22.4982 17.827 21.7998 18.687 21.7998H21.7991C22.6591 21.7998 23.3575 22.4982 23.3575 23.3582C23.3575 24.2182 22.6591 24.9167 21.7991 24.9167H18.687C17.827 24.9167 17.1285 24.2182 17.1285 23.3582Z" fill="#000001"/>
</svg>
