<svg width="47" height="43" viewBox="0 0 47 43" fill="none" xmlns="http://www.w3.org/2000/svg">
<path d="M40.3649 6.56048H33.493C32.7089 6.56048 32.0732 7.19615 32.0732 7.98029V8.76829L28.5237 5.09807C28.2561 4.82043 27.887 4.66357 27.5014 4.66357C27.1158 4.66357 26.7468 4.82043 26.4792 5.09807L8.73151 23.4349C8.33527 23.8449 8.22266 24.4521 8.44557 24.9768C8.66847 25.5016 9.18364 25.8421 9.75377 25.8415H12.4727V41.5801C12.4727 42.3643 13.1084 42.9999 13.8925 42.9999H41.1103C41.8944 42.9999 42.5301 42.3643 42.5301 41.5801V25.8415H45.2491C45.8192 25.8421 46.3344 25.5016 46.5573 24.9768C46.7802 24.4521 46.6676 23.8449 46.2713 23.4349L41.7847 18.7993V7.98029C41.7847 7.19615 41.149 6.56048 40.3649 6.56048ZM41.8983 23.0019H41.1103C40.3262 23.0019 39.6905 23.6376 39.6905 24.4217V40.1603H15.3123V24.4217C15.3123 23.6376 14.6767 23.0019 13.8925 23.0019H13.1045L27.5014 8.12937L32.4708 13.2691C32.8728 13.6862 33.4879 13.8172 34.025 13.6002C34.562 13.3832 34.9134 12.8616 34.9128 12.2823V9.4001H38.9451V19.3388C38.9447 19.7068 39.0873 20.0606 39.3426 20.3256L41.8983 23.0019Z" fill="black"/>
<path d="M1.80214 40.1603C1.018 40.1603 0.382324 40.796 0.382324 41.5801C0.382324 42.3643 1.018 42.9999 1.80214 42.9999H6.06157C6.84571 42.9999 7.48138 42.3643 7.48138 41.5801C7.48138 40.796 6.84571 40.1603 6.06157 40.1603H5.35166V7.50466H6.06157C6.84571 7.50466 7.48138 6.86899 7.48138 6.08485C7.48138 5.30071 6.84571 4.66504 6.06157 4.66504H1.80214C1.018 4.66504 0.382324 5.30071 0.382324 6.08485C0.382324 6.86899 1.018 7.50466 1.80214 7.50466H2.51204V40.1603H1.80214Z" fill="black"/>
<path d="M45.2491 0C44.4649 0 43.8293 0.635671 43.8293 1.41981V2.12972H11.1736V1.41981C11.1736 0.635671 10.5379 -1.69255e-07 9.7538 0C8.96966 0 8.33398 0.635671 8.33398 1.41981V5.67925C8.33398 6.46339 8.96966 7.09906 9.7538 7.09906C10.5379 7.09906 11.1736 6.46339 11.1736 5.67925V4.96934H43.8293V5.67925C43.8293 6.46339 44.4649 7.09906 45.2491 7.09906C46.0332 7.09906 46.6689 6.46339 46.6689 5.67925V1.41981C46.6689 0.635671 46.0332 0 45.2491 0Z" fill="black"/>
</svg>
