<svg width="48" height="48" viewBox="0 0 48 48" fill="none" xmlns="http://www.w3.org/2000/svg">
<path d="M45.4464 24H1.56712C0.701023 24 0 24.7674 0 25.7143V46.2857C0 47.2326 0.701023 48 1.56712 48H45.4464C46.3125 48 47.0135 47.2326 47.0135 46.2857V25.7143C47.0135 24.7674 46.3125 24 45.4464 24ZM43.8793 27.4286V29.1429H3.13423V27.4286H43.8793ZM3.13423 32.5714H21.9396V44.5714H3.13423V32.5714ZM25.0739 44.5714V32.5714H43.8793V44.5714H25.0739ZM45.4464 0H1.56712C0.701023 0 0 0.767427 0 1.71428V15.4286C0 16.3754 0.701023 17.1429 1.56712 17.1429H10.9698C11.8359 17.1429 12.5369 16.3754 12.5369 15.4286V3.42857H21.9396V6.14743L16.1303 12.5023C15.8362 12.8234 15.6712 13.26 15.6712 13.7143V15.4286C15.6712 16.3754 16.3722 17.1429 17.2383 17.1429H29.7752C30.6413 17.1429 31.3424 16.3754 31.3424 15.4286V13.7143C31.3424 13.26 31.1773 12.8234 30.8832 12.5023L25.0739 6.14743V3.42857H34.4766V15.4286C34.4766 16.3754 35.1776 17.1429 36.0437 17.1429H45.4464C46.3125 17.1429 47.0135 16.3754 47.0135 15.4286V1.71428C47.0135 0.767427 46.3125 0 45.4464 0ZM9.4027 13.7143H3.13423V3.42857H9.4027V13.7143ZM19.4542 13.7143L23.5068 9.28115L27.5593 13.7143H19.4542ZM43.8793 13.7143H37.6108V3.42857H43.8793V13.7143ZM18.8054 37.7143V39.4286C18.8054 40.3754 18.1044 41.1429 17.2383 41.1429C16.3722 41.1429 15.6712 40.3754 15.6712 39.4286V37.7143C15.6712 36.7674 16.3722 36 17.2383 36C18.1044 36 18.8054 36.7674 18.8054 37.7143ZM31.3424 37.7143V39.4286C31.3424 40.3754 30.6413 41.1429 29.7752 41.1429C28.9091 41.1429 28.2081 40.3754 28.2081 39.4286V37.7143C28.2081 36.7674 28.9091 36 29.7752 36C30.6413 36 31.3424 36.7674 31.3424 37.7143Z" fill="black"/>
</svg>
