<svg xmlns="http://www.w3.org/2000/svg" width="27.988" height="16.563" viewBox="0 0 27.988 16.563">
  <path id="fast-delivery_1_" data-name="fast-delivery (1)" d="M19.952.165c2.427.563,3.355,1.982,4.518,3.935H19.952ZM5.771,4.264a.72.72,0,0,1,.82.765.82.82,0,0,1-.818.82H.82a.82.82,0,1,0,0,1.64H8.2a.82.82,0,1,1,0,1.64H.82a.82.82,0,1,0,0,1.64h1.8v2.46a.82.82,0,0,0,.82.82H5.092a3.144,3.144,0,0,0,6.16,0h8.325a3.144,3.144,0,0,0,6.16,0h1.43a.82.82,0,0,0,.82-.82V8.309c0-2.406-2.538-2.566-2.54-2.569H19.132a.82.82,0,0,1-.82-.82V0H3.444a.82.82,0,0,0-.82.82v1.8H1.64a.82.82,0,0,0,0,1.64Zm17.95,8.093a1.5,1.5,0,1,1-2.566,1.063A1.5,1.5,0,0,1,23.721,12.357Zm-14.486,0A1.5,1.5,0,1,1,6.669,13.42,1.5,1.5,0,0,1,9.235,12.357Zm0,0" fill="#898989" fill-rule="evenodd"/>
</svg>
