<svg width="46" height="46" viewBox="0 0 46 46" fill="none" xmlns="http://www.w3.org/2000/svg">
<path d="M44.8648 8.13545C44.6972 7.71253 44.3282 7.40241 43.8824 7.31015C43.4362 7.21789 42.974 7.35628 42.6524 7.67827L35.6787 14.6511L31.93 13.8449L31.1238 10.0962L38.0975 3.12292C38.4191 2.80093 38.5575 2.33872 38.4657 1.89342C38.3734 1.44766 38.0628 1.07817 37.6399 0.910096C32.8525 -0.988045 27.4066 0.137321 23.7656 3.77832C22.0127 5.53076 20.8092 7.73217 20.2849 10.1441C19.8364 12.208 19.8994 14.34 20.463 16.3619L1.85384 34.9711C0.658594 36.1664 0 37.7558 0 39.4461C0 41.1369 0.658594 42.7263 1.85384 43.9215C3.04954 45.1172 4.63893 45.7754 6.32927 45.7754C8.0196 45.7754 9.60899 45.1172 10.8047 43.9215L29.4139 25.3123C31.4349 25.8759 33.5668 25.939 35.6312 25.4905C38.0432 24.9661 40.2446 23.7627 41.997 22.0098C45.6376 18.3692 46.7639 12.9233 44.8648 8.13545ZM40.0852 20.0979C37.3275 22.8556 33.1668 23.7997 29.4865 22.5021C28.9955 22.329 28.4488 22.4533 28.0807 22.8214L8.89239 42.0097C8.20777 42.6943 7.29752 43.0716 6.32927 43.0716C5.36056 43.0716 4.44985 42.6943 3.76522 42.0097C3.0806 41.325 2.7038 40.4143 2.7038 39.4461C2.7038 38.4778 3.0806 37.5676 3.76522 36.883L22.9544 17.6947C23.3221 17.3265 23.4463 16.7798 23.2732 16.2893C21.9761 12.6081 22.9197 8.44785 25.6774 5.69016C27.6263 3.74132 30.23 2.70456 32.8831 2.70456C33.4394 2.70456 33.9989 2.74978 34.5543 2.84249L28.6918 8.70453C28.3671 9.02926 28.2296 9.49603 28.326 9.94499L29.47 15.2672C29.5819 15.7874 29.988 16.1934 30.5077 16.3049L35.8304 17.4494C36.2793 17.5458 36.7461 17.4078 37.0708 17.0836L42.9329 11.2211C43.4663 14.4241 42.4428 17.7399 40.0852 20.0979Z" fill="black"/>
</svg>
