<svg width="46" height="44" viewBox="0 0 46 44" fill="none" xmlns="http://www.w3.org/2000/svg">
<path d="M44.754 0H1.15054C0.517839 0 0 0.510238 0 1.13388V42.8659C0 43.4896 0.517839 44 1.15054 44H44.754C45.3867 44 45.9043 43.4896 45.9043 42.8659V1.13388C45.9043 0.510238 45.3867 0 44.754 0ZM17.8326 10.3195V2.26796H34.1694V10.3195C34.1694 10.3649 34.1924 10.3988 34.2155 10.4329H17.8095C17.821 10.3988 17.8326 10.3536 17.8326 10.3195ZM17.8095 23.134H34.2155C34.1924 23.1681 34.1809 23.2019 34.1694 23.236V31.2989H17.8326V23.236C17.8326 23.2019 17.821 23.1681 17.8095 23.134ZM24.8504 20.8658H8.51359V12.7009H24.8504V20.8658ZM2.30107 2.26796H15.5317V10.3195C15.5317 10.3536 15.5086 10.4329 15.5201 10.4329H2.30107V2.26796ZM2.30107 12.7009H6.21271V20.8658H2.30107V12.7009ZM2.30107 23.134H15.5201C15.5201 23.134 15.5317 23.2019 15.5317 23.236V31.2989H2.30107V23.134ZM6.21271 41.7318H2.30107V33.5669H6.21271V41.7318ZM24.8504 41.7318H8.51359V33.5669H24.8504V41.7318ZM43.4884 41.7318H27.1515V33.5669H43.4884V41.7318ZM43.4884 31.2989H36.4705V23.236C36.482 23.2019 36.4933 23.1681 36.5049 23.134H43.4884V31.2989ZM43.4884 20.8658H27.1515V12.7009H43.4884V20.8658ZM43.4884 10.4329H36.5049C36.4933 10.3988 36.482 10.3536 36.4705 10.3195V2.26796H43.4884V10.4329Z" fill="black"/>
</svg>
