<svg width="44" height="45" viewBox="0 0 44 45" fill="none" xmlns="http://www.w3.org/2000/svg">
<path d="M0 0V45H23.003V29.0918H39.6398C41.7459 29.0918 43.4595 27.3175 43.4595 25.1367V0C39.2734 0 4.2232 0 0 0ZM10.2707 42.3633H2.54645V2.63672H10.2707V42.3633ZM30.7272 2.63672V15.9082H23.003V2.63672H30.7272ZM12.8171 42.3633V2.63672H20.4565V15.9082H15.3636V22.5C15.3636 25.6833 17.5543 28.3468 20.4565 28.9593V42.3633H12.8171ZM33.2737 2.63672H40.913V25.1367C40.913 25.8635 40.3417 26.4551 39.6398 26.4551C38.9379 26.4551 38.3666 25.8635 38.3666 25.1367V15.9082H33.2737V2.63672ZM35.8201 18.5449V25.1367C35.8201 25.5988 35.897 26.0424 36.0383 26.4551H21.7297C19.6236 26.4551 17.9101 24.6808 17.9101 22.5V18.5449H35.8201Z" fill="black"/>
</svg>
