<svg xmlns="http://www.w3.org/2000/svg" width="247.107" height="60.545" viewBox="142.85 63.753 247.107 60.545"><g data-name="Group 209"><g data-name="Group 208" transform="translate(117 54.39)" clip-path="url(&quot;#a&quot;)"><g data-name="Group 171"><g data-name="Group 170" clip-path="url(&quot;#b&quot;)"><path d="M119.79 63.676c.34.553.783.965 1.328 1.236.544.27 1.164.406 1.859.406.433 0 .84-.062 1.22-.185s.712-.295.993-.516c.282-.222.506-.49.67-.803.163-.313.245-.667.245-1.06 0-.455-.102-.83-.305-1.126a2.389 2.389 0 0 0-.816-.728 6.236 6.236 0 0 0-1.151-.49c-.426-.134-.866-.27-1.318-.405a14.962 14.962 0 0 1-1.319-.461 4.468 4.468 0 0 1-1.15-.673 3.027 3.027 0 0 1-.817-1.043c-.203-.418-.305-.934-.305-1.55 0-.577.121-1.09.364-1.54.243-.448.57-.823.984-1.125a4.494 4.494 0 0 1 1.426-.682 6.135 6.135 0 0 1 1.692-.23c.761 0 1.466.125 2.115.378.65.252 1.21.672 1.683 1.263l-1.122.756a3.237 3.237 0 0 0-1.151-.968c-.44-.215-.961-.323-1.564-.323-.42 0-.82.052-1.2.157-.381.105-.712.258-.994.46a2.316 2.316 0 0 0-.679.767c-.17.307-.255.67-.255 1.087 0 .653.176 1.154.53 1.504.355.35.797.627 1.329.83.53.203 1.108.382 1.731.535.623.154 1.2.36 1.731.618.532.258.975.618 1.329 1.08.354.46.531 1.097.531 1.909 0 .59-.118 1.113-.354 1.567-.236.456-.555.84-.955 1.153-.4.314-.862.55-1.387.71a5.58 5.58 0 0 1-1.633.24c-.918 0-1.764-.15-2.537-.452-.775-.3-1.437-.808-1.988-1.521l1.24-.775Z" fill="#fff" fill-rule="evenodd" data-name="Path 33"/><path d="M140.192 53.032h8.52v1.107h-7.221v4.649h6.768v1.106h-6.768v5.091h7.536v1.107h-8.835v-13.06Z" fill="#fff" fill-rule="evenodd" data-name="Path 34"/><path d="M161.697 53.032h3.66c.182 0 .432.007.747.019s.655.049 1.023.11c.367.062.74.16 1.121.296.38.135.722.332 1.023.59.302.258.552.584.748.977.197.394.295.874.295 1.44 0 .627-.115 1.143-.344 1.55-.23.405-.518.734-.866.986-.347.252-.731.44-1.151.562-.42.123-.82.21-1.2.259l4.053 6.271h-1.476l-3.915-6.198h-2.42v6.198h-1.298v-13.06Zm1.298 5.756h2.755c.682 0 1.235-.08 1.662-.24.426-.16.758-.357.994-.59.236-.234.396-.486.482-.757.085-.27.127-.516.127-.738 0-.221-.042-.467-.127-.738a1.855 1.855 0 0 0-.482-.756c-.236-.234-.568-.43-.994-.59-.427-.16-.98-.24-1.662-.24h-2.755v4.649Z" fill="#fff" fill-rule="evenodd" data-name="Path 35"/><path d="M181.351 53.032h1.397l4.486 11.456 4.525-11.456h1.378l-5.293 13.06h-1.298l-5.195-13.06Z" fill="#fff" fill-rule="evenodd" data-name="Path 36"/><path d="M204.824 53.032h1.298v13.06h-1.298v-13.06z" fill="#fff" fill-rule="evenodd" data-name="Rectangle 134"/><path d="M231.246 64.045c-.669.849-1.443 1.457-2.322 1.826a7.29 7.29 0 0 1-2.852.553c-1.063 0-2.036-.169-2.922-.507a6.623 6.623 0 0 1-2.272-1.42 6.484 6.484 0 0 1-1.476-2.177c-.354-.842-.531-1.762-.531-2.758 0-.995.177-1.912.531-2.748a6.508 6.508 0 0 1 1.476-2.168 6.743 6.743 0 0 1 2.272-1.43c.886-.344 1.86-.516 2.922-.516.944 0 1.826.157 2.646.47.82.314 1.538.84 2.154 1.578l-1.062.83a3.793 3.793 0 0 0-1.663-1.347 5.331 5.331 0 0 0-2.075-.424c-.905 0-1.722.148-2.45.442a5.474 5.474 0 0 0-1.859 1.218 5.339 5.339 0 0 0-1.18 1.826 6.16 6.16 0 0 0-.414 2.27c0 .811.138 1.567.413 2.268.276.701.67 1.31 1.181 1.826.511.517 1.13.923 1.86 1.218.727.295 1.544.443 2.449.443a5.375 5.375 0 0 0 2.213-.489c.36-.166.705-.375 1.033-.627.328-.252.616-.557.866-.914l1.062.757Z" fill="#fff" fill-rule="evenodd" data-name="Path 37"/><path d="M243.464 53.032h8.52v1.107h-7.221v4.649h6.768v1.106h-6.768v5.091h7.535v1.107h-8.834v-13.06Z" fill="#fff" fill-rule="evenodd" data-name="Path 38"/><path d="M265.342 63.676c.341.553.784.965 1.329 1.236.543.27 1.163.406 1.859.406.433 0 .839-.062 1.22-.185.38-.123.711-.295.993-.516.282-.222.505-.49.67-.803.163-.313.245-.667.245-1.06 0-.455-.102-.83-.305-1.126a2.386 2.386 0 0 0-.817-.728 6.23 6.23 0 0 0-1.15-.49c-.427-.134-.866-.27-1.319-.405a14.942 14.942 0 0 1-1.318-.461 4.468 4.468 0 0 1-1.151-.673 3.028 3.028 0 0 1-.816-1.043c-.204-.418-.306-.934-.306-1.55 0-.577.122-1.09.365-1.54.242-.448.57-.823.983-1.125a4.493 4.493 0 0 1 1.427-.682 6.135 6.135 0 0 1 1.692-.23c.76 0 1.465.125 2.115.378.65.252 1.21.672 1.682 1.263l-1.121.756a3.24 3.24 0 0 0-1.151-.968c-.44-.215-.961-.323-1.565-.323-.42 0-.82.052-1.2.157-.38.105-.712.258-.993.46a2.309 2.309 0 0 0-.679.767c-.17.307-.256.67-.256 1.087 0 .653.177 1.154.531 1.504.354.35.797.627 1.328.83.531.203 1.109.382 1.732.535.623.154 1.2.36 1.731.618.531.258.974.618 1.328 1.08.354.46.532 1.097.532 1.909 0 .59-.118 1.113-.354 1.567-.237.456-.555.84-.955 1.153-.4.314-.863.55-1.387.71-.525.16-1.07.24-1.633.24-.918 0-1.764-.15-2.538-.452-.774-.3-1.436-.808-1.987-1.521l1.24-.775Z" fill="#fff" fill-rule="evenodd" data-name="Path 39"/><path d="M85.452 9.363c10.068.661 15.486 6.172 15.583 13.751.035 2.709-1.214 6.147-3.148 8.211-.866.904-3.652 3.694-7.92 6.403 7.286 3.691 13.784 7.854 14.025 16.107.338 11.58-10.915 16.251-19.667 16.068-11.39.005-20.29-5.75-19.33-15.707.443-4.584 2.728-6.671 4.862-8.606 1.6-1.483 5.231-3.606 8.565-5.476-6.335-3.354-11.4-8.703-11.4-15.346 0-8.063 5.74-15.405 18.43-15.405m-.206 56.65c5.736 0 10.854-4.01 11.026-10.518.184-6.964-6.195-9.794-14.264-13.664-4.494 2.6-9.301 6.925-9.384 12.084-.143 8.997 6.62 12.098 12.622 12.098m-1.245-52.508c-5.534 0-9.692 4.282-9.692 8.99 0 6.902 4.759 10.117 11.961 13.535 3.134-2.386 7.85-5.575 7.85-12.09 0-8.062-5.584-10.435-10.052-10.435h-.067Z" fill="#929090" fill-rule="evenodd" data-name="Path 40"/><path d="M65.914 9.363c10.068.661 15.486 6.172 15.583 13.751.035 2.709-1.213 6.147-3.147 8.211-.867.904-3.653 3.694-7.92 6.403 7.285 3.691 13.783 7.854 14.024 16.107.339 11.58-10.914 16.251-19.667 16.068-11.39.005-20.29-5.75-19.329-15.707.443-4.584 2.727-6.671 4.861-8.606 1.6-1.483 5.232-3.606 8.566-5.476-6.335-3.354-11.4-8.703-11.4-15.346 0-8.063 5.74-15.405 18.429-15.405m-.205 56.65c5.735 0 10.853-4.01 11.025-10.518.184-6.964-6.195-9.794-14.263-13.664-4.494 2.6-9.302 6.925-9.384 12.084-.143 8.997 6.62 12.098 12.622 12.098m-1.245-52.508c-5.535 0-9.693 4.282-9.693 8.99 0 6.902 4.76 10.117 11.962 13.535 3.133-2.386 7.85-5.575 7.85-12.09 0-8.062-5.585-10.435-10.052-10.435h-.067Z" fill="#929090" fill-rule="evenodd" data-name="Path 41"/><path d="M46.377 9.363c10.068.661 15.486 6.172 15.583 13.751.035 2.709-1.214 6.147-3.148 8.211-.866.904-3.652 3.694-7.92 6.403 7.286 3.691 13.784 7.854 14.025 16.107.338 11.58-10.914 16.251-19.667 16.068-11.39.005-20.29-5.75-19.33-15.707.444-4.584 2.728-6.671 4.862-8.606 1.6-1.483 5.231-3.606 8.565-5.476-6.334-3.354-11.4-8.703-11.4-15.346 0-8.063 5.74-15.405 18.43-15.405m-.205 56.65c5.735 0 10.853-4.01 11.025-10.518.184-6.964-6.195-9.794-14.264-13.664-4.494 2.6-9.3 6.925-9.383 12.084-.144 8.997 6.62 12.098 12.622 12.098m-1.245-52.508c-5.535 0-9.693 4.282-9.693 8.99 0 6.902 4.76 10.117 11.96 13.535 3.135-2.386 7.852-5.575 7.852-12.09 0-8.062-5.585-10.435-10.053-10.435h-.066Z" fill="#929090" fill-rule="evenodd" data-name="Path 42"/></g></g></g></g><defs><clipPath id="b"><path d="M0 0h298.806v79.22H0V0z" data-name="Rectangle 135"/></clipPath><clipPath id="c"><path d="M186.883 51.812c0 3.18 1.164 6.065 3.07 8.576 2.163-1.967 4.14-4.558 4.448-8.368a12.856 12.856 0 0 1-.231-2.48c0-.352.026-.701.071-1.047-.528-3.096-2.045-5.103-3.936-6.323-2.315 2.702-3.422 6.102-3.422 9.642" data-name="Path 43" transform="translate(-186.883 -42.17)"/></clipPath><clipPath id="d"><path d="M185.968 127.093c-2.133 1.934-4.418 4.021-4.86 8.605-.458 4.738 1.32 8.525 4.534 11.192 2.13-.723 3.988-2.055 5.285-3.894-1.391-1.844-2.243-4.325-2.19-7.578.028-1.79.626-3.478 1.58-5.03-1.14-1.22-2.62-2.285-4.344-3.3l-.005.005" data-name="Path 44" transform="translate(-181.037 -127.088)"/></clipPath><clipPath id="e"><path d="M131.5 127.093c-2.135 1.934-4.42 4.021-4.862 8.605-.457 4.738 1.32 8.525 4.535 11.192 2.13-.723 3.988-2.055 5.285-3.894-1.391-1.844-2.243-4.325-2.19-7.578.027-1.79.625-3.478 1.58-5.03-1.14-1.22-2.62-2.285-4.344-3.3l-.005.005" data-name="Path 45" transform="translate(-126.567 -127.088)"/></clipPath><clipPath id="f"><path d="M132.415 51.812c0 3.18 1.164 6.065 3.07 8.576 2.163-1.967 4.14-4.558 4.448-8.368a12.827 12.827 0 0 1-.231-2.48c0-.352.026-.701.07-1.047-.527-3.096-2.045-5.103-3.935-6.323-2.315 2.702-3.422 6.102-3.422 9.642" data-name="Path 46" transform="translate(-132.415 -42.17)"/></clipPath><clipPath id="g"><path d="M207.397 48.24c.13.763.204 1.59.204 2.49 0 .357-.018.7-.044 1.037.51 2.596 1.85 4.6 3.833 6.322 1.92-2.066 3.159-5.487 3.124-8.184-.04-3.128-.989-5.903-2.794-8.13-2.371 1.46-3.98 3.847-4.323 6.465" data-name="Path 47" transform="translate(-207.397 -41.775)"/></clipPath><clipPath id="h"><path d="M153.932 28.46c1.6.882 2.924 1.983 3.963 3.265a10.06 10.06 0 0 1 5.298-1.48h.067c1.944 0 4.099.45 5.913 1.622 1.136-1.327 2.565-2.485 4.296-3.407-2.355-1.299-5.304-2.125-8.825-2.356-4.384 0-7.938.876-10.712 2.356" data-name="Path 48" transform="translate(-153.932 -26.104)"/></clipPath><clipPath id="i"><path d="M206.911 126.63c1.66 1.774 2.6 3.872 2.528 6.61-.062 2.349-.77 4.37-1.918 5.998 1.261 1.671 2.968 2.818 4.848 3.538 2.974-2.584 4.935-6.263 4.79-11.197-.13-4.45-2.08-7.712-4.992-10.351-2.058 1.495-3.977 3.325-5.256 5.402" data-name="Path 49" transform="translate(-206.911 -121.228)"/></clipPath><clipPath id="j"><path d="M152.949 184.455c2.896 1.13 6.288 1.72 9.938 1.719 3.095.064 6.502-.478 9.6-1.719-1.842-.718-3.481-1.655-4.858-2.797-1.205.41-2.496.626-3.821.626-1.864 0-3.802-.3-5.583-.981-1.538 1.336-3.347 2.38-5.276 3.152" data-name="Path 50" transform="translate(-152.949 -181.303)"/></clipPath><clipPath id="k"><path d="M152.928 48.24c.13.763.203 1.59.203 2.49 0 .357-.016.7-.043 1.037.51 2.596 1.85 4.6 3.833 6.322 1.92-2.066 3.159-5.487 3.125-8.184-.04-3.128-.99-5.903-2.795-8.13-2.371 1.46-3.98 3.847-4.323 6.465" data-name="Path 51" transform="translate(-152.928 -41.775)"/></clipPath><clipPath id="l"><path d="M152.442 126.63c1.659 1.774 2.6 3.872 2.529 6.61-.062 2.349-.771 4.37-1.919 5.998 1.262 1.671 2.968 2.818 4.848 3.538 2.974-2.584 4.935-6.263 4.79-11.197-.13-4.45-2.08-7.712-4.992-10.351-2.058 1.495-3.977 3.325-5.256 5.402" data-name="Path 52" transform="translate(-152.442 -121.228)"/></clipPath><clipPath id="m"><path d="m131.614 95.644 3.904 1.807-.21-.108c.818-.519 1.581-1.04 2.287-1.551a20.714 20.714 0 0 1-2.623-2.833c-1.142 1.039-2.334 1.905-3.358 2.685" data-name="Path 53" transform="translate(-131.614 -92.959)"/></clipPath><clipPath id="n"><path d="M79.741 117.309c-1.212 1.099-2.472 2.247-3.416 3.874h7.431c1.733-3.18 5.01-5.824 8.136-7.633l-3.585-1.718c-3.335 1.87-6.965 3.993-8.566 5.477" data-name="Path 54" transform="translate(-76.325 -111.832)"/></clipPath><clipPath id="o"><path d="M153.922 87.285c-.7.73-2.656 2.693-5.634 4.85 1.58 1.426 3.404 2.68 5.356 3.746l7.595-4.18c-2.912-1.406-5.397-2.797-7.293-4.443l-.024.027" data-name="Path 55" transform="translate(-148.288 -87.258)"/></clipPath><clipPath id="p"><path d="m240.544 84.878 3.697 1.697c4.268-2.71 7.054-5.5 7.92-6.403.582-.62 1.101-1.368 1.543-2.18l-5.78-1.824c-1.27 4.32-4.843 6.778-7.38 8.71" data-name="Path 56" transform="translate(-240.544 -76.168)"/></clipPath><clipPath id="q"><path d="M213.338 112.916c1.058.714 2.05 1.47 2.95 2.286a29.556 29.556 0 0 1 2.547-1.653l-3.586-1.717c-.632.354-1.274.718-1.911 1.084" data-name="Path 57" transform="translate(-213.338 -111.832)"/></clipPath><clipPath id="r"><path d="M91.132 178.272c3.371 1.946 7.749 2.978 12.573 2.976 3.096.064 6.503-.478 9.6-1.719-1.84-.718-3.48-1.655-4.857-2.796a11.89 11.89 0 0 1-3.822.625c-3.507 0-7.274-1.06-9.772-3.736l-3.722 4.65Z" data-name="Path 58" transform="translate(-91.132 -173.622)"/></clipPath><clipPath id="s"><path d="M208.423 87.438c-.693.722-2.614 2.65-5.537 4.78 1.665 1.494 3.594 2.803 5.661 3.896l3.586 1.718 7.959-4.103-3.697-1.697c-3.159-1.5-5.847-2.96-7.87-4.709-.034.038-.067.078-.102.115" data-name="Path 59" transform="translate(-202.886 -87.323)"/></clipPath><clipPath id="t"><path d="M98.849 28.388c1.612.877 2.945 1.975 3.994 3.255 1.522-.961 3.374-1.488 5.403-1.488h.066c1.959 0 4.133.437 5.988 1.62a14.65 14.65 0 0 1 4.299-3.407c-2.37-1.326-5.347-2.17-8.912-2.405-4.45 0-8.045.904-10.838 2.425" data-name="Path 60" transform="translate(-98.849 -25.963)"/></clipPath><clipPath id="a"><path d="M0 0h298.806v79.22H0V0z" data-name="Rectangle 154"/></clipPath></defs></svg>